<svg width="24" height="24" viewBox="0 0 24 24" fill="none" xmlns="http://www.w3.org/2000/svg">
<mask id="mask0_412_8652" style="mask-type:alpha" maskUnits="userSpaceOnUse" x="0" y="0" width="24" height="24">
<rect width="23.6445" height="24" fill="#D9D9D9"/>
</mask>
<g mask="url(#mask0_412_8652)">
<path d="M11.8222 12C10.1967 12 8.80511 11.4125 7.64752 10.2375C6.48992 9.0625 5.91112 7.65 5.91112 6C5.91112 4.35 6.48992 2.9375 7.64752 1.7625C8.80511 0.5875 10.1967 0 11.8222 0C13.4478 0 14.8394 0.5875 15.997 1.7625C17.1546 2.9375 17.7334 4.35 17.7334 6C17.7334 7.65 17.1546 9.0625 15.997 10.2375C14.8394 11.4125 13.4478 12 11.8222 12ZM0 24V19.8C0 18.95 0.21551 18.1687 0.646529 17.4562C1.07755 16.7437 1.65019 16.2 2.36445 15.825C3.89149 15.05 5.44316 14.4687 7.01946 14.0812C8.59576 13.6937 10.1967 13.5 11.8222 13.5C13.4478 13.5 15.0487 13.6937 16.625 14.0812C18.2013 14.4687 19.753 15.05 21.2801 15.825C21.9943 16.2 22.5669 16.7437 22.998 17.4562C23.429 18.1687 23.6445 18.95 23.6445 19.8V24H0Z" fill="#004872"/>
</g>
</svg>
