<svg width="28" height="28" viewBox="0 0 28 28" fill="none" xmlns="http://www.w3.org/2000/svg">
<path d="M23.3326 12.8321H25.666C25.666 6.84708 21.1475 2.33325 15.1543 2.33325V4.66659C19.8933 4.66659 23.3326 8.10008 23.3326 12.8321Z" fill="white"/>
<path d="M15.167 9.33345C17.6205 9.33345 18.667 10.3799 18.667 12.8334H21.0003C21.0003 9.07095 18.9295 7.00012 15.167 7.00012V9.33345ZM19.1593 15.6836C18.9352 15.4799 18.6406 15.3712 18.3378 15.3806C18.035 15.3899 17.7477 15.5166 17.5365 15.7338L14.7447 18.6049C14.0727 18.4766 12.7217 18.0554 11.331 16.6683C9.94033 15.2764 9.51916 13.9219 9.39433 13.2546L12.2632 10.4616C12.4806 10.2506 12.6075 9.96324 12.6169 9.66036C12.6262 9.35747 12.5174 9.06283 12.3133 8.83878L8.0025 4.09862C7.79838 3.87387 7.51469 3.73754 7.21167 3.71859C6.90866 3.69963 6.61019 3.79955 6.37966 3.99712L3.848 6.16828C3.64629 6.37072 3.5259 6.64014 3.50966 6.92545C3.49216 7.21712 3.1585 14.1261 8.51583 19.4858C13.1895 24.1583 19.0438 24.5001 20.6562 24.5001C20.8918 24.5001 21.0365 24.4931 21.075 24.4908C21.3603 24.4748 21.6295 24.3539 21.831 24.1513L24.001 21.6185C24.1987 21.3881 24.2988 21.0897 24.2801 20.7867C24.2614 20.4837 24.1252 20.1999 23.9007 19.9956L19.1593 15.6836Z" fill="white"/>
</svg>
