<svg width="24" height="24" viewBox="0 0 24 24" fill="none" xmlns="http://www.w3.org/2000/svg">
<mask id="mask0_412_8542" style="mask-type:alpha" maskUnits="userSpaceOnUse" x="0" y="0" width="24" height="24">
<rect width="23.6445" height="24" fill="#D9D9D9"/>
</mask>
<g mask="url(#mask0_412_8542)">
<path d="M22.2652 24C19.441 24 16.688 23.3611 14.0061 22.0833C11.3242 20.8056 8.94879 19.1167 6.87989 17.0167C4.811 14.9167 3.14713 12.5056 1.88828 9.78333C0.629425 7.06111 0 4.26667 0 1.4C0 1 0.131358 0.666667 0.394075 0.4C0.656792 0.133333 0.985188 0 1.37926 0H6.69927C7.00578 0 7.27944 0.1 7.52026 0.3C7.76109 0.5 7.90339 0.755556 7.94718 1.06667L8.80101 5.73333C8.84479 6.04445 8.83932 6.32778 8.78459 6.58333C8.72986 6.83889 8.60397 7.06667 8.40693 7.26667L5.25433 10.5333C6.17384 12.1333 7.32323 13.6333 8.70249 15.0333C10.0818 16.4333 11.6033 17.6444 13.2672 18.6667L16.3541 15.5333C16.5511 15.3333 16.8084 15.1833 17.1258 15.0833C17.4433 14.9833 17.7553 14.9556 18.0618 15L22.5936 15.9333C22.9001 16 23.1519 16.15 23.3489 16.3833C23.546 16.6167 23.6445 16.8889 23.6445 17.2V22.6C23.6445 23 23.5131 23.3333 23.2504 23.6C22.9877 23.8667 22.6593 24 22.2652 24Z" fill="#0E0E0E" fill-opacity="0.7"/>
</g>
</svg>
