<svg width="26" height="28" viewBox="0 0 26 28" fill="none" xmlns="http://www.w3.org/2000/svg">
<path d="M12.9919 1.75C10.624 1.75301 8.3539 2.76804 6.67956 4.57242C5.00522 6.37681 4.06335 8.82322 4.06056 11.375C4.05772 13.4603 4.68979 15.4891 5.85981 17.15C5.85981 17.15 6.10339 17.4956 6.14317 17.5455L12.9919 26.25L19.8438 17.5411C19.8795 17.4948 20.1239 17.15 20.1239 17.15L20.1247 17.1474C21.2942 15.4872 21.9259 13.4594 21.9232 11.375C21.9204 8.82322 20.9785 6.37681 19.3042 4.57242C17.6298 2.76804 15.3597 1.75301 12.9919 1.75ZM12.9919 14.875C12.3495 14.875 11.7216 14.6697 11.1875 14.2851C10.6534 13.9006 10.2371 13.3539 9.99133 12.7144C9.74552 12.0749 9.6812 11.3711 9.80652 10.6922C9.93183 10.0133 10.2412 9.38961 10.6954 8.90013C11.1496 8.41064 11.7283 8.0773 12.3583 7.94225C12.9883 7.8072 13.6413 7.87651 14.2347 8.14142C14.8282 8.40633 15.3354 8.85493 15.6923 9.4305C16.0491 10.0061 16.2396 10.6828 16.2396 11.375C16.2385 12.3029 15.896 13.1925 15.2872 13.8486C14.6783 14.5047 13.8529 14.8738 12.9919 14.875Z" fill="white"/>
</svg>
