<svg width="24" height="25" viewBox="0 0 24 25" fill="none" xmlns="http://www.w3.org/2000/svg">
<mask id="mask0_412_8586" style="mask-type:alpha" maskUnits="userSpaceOnUse" x="0" y="0" width="24" height="25">
<rect y="0.447021" width="23.6445" height="24" fill="#D9D9D9"/>
</mask>
<g mask="url(#mask0_412_8586)">
<path d="M11.8245 21.4469L10.396 20.1469C8.73761 18.6303 7.36656 17.3219 6.28285 16.2219C5.19914 15.1219 4.33711 14.1344 3.69673 13.2594C3.05636 12.3844 2.60892 11.5803 2.35442 10.8469C2.09991 10.1136 1.97266 9.36359 1.97266 8.59692C1.97266 7.03026 2.48988 5.72192 3.52433 4.67192C4.55877 3.62192 5.84773 3.09692 7.39119 3.09692C8.24502 3.09692 9.05779 3.28026 9.82952 3.64692C10.6013 4.01359 11.2663 4.53026 11.8245 5.19692C12.3828 4.53026 13.0478 4.01359 13.8195 3.64692C14.5913 3.28026 15.404 3.09692 16.2579 3.09692C17.8013 3.09692 19.0903 3.62192 20.1247 4.67192C21.1592 5.72192 21.6764 7.03026 21.6764 8.59692C21.6764 9.36359 21.5491 10.1136 21.2946 10.8469C21.0401 11.5803 20.5927 12.3844 19.9523 13.2594C19.312 14.1344 18.4499 15.1219 17.3662 16.2219C16.2825 17.3219 14.9114 18.6303 13.253 20.1469L11.8245 21.4469Z" fill="#0E0E0E" fill-opacity="0.7"/>
</g>
</svg>
