<svg width="24" height="24" viewBox="0 0 24 24" fill="none" xmlns="http://www.w3.org/2000/svg">
<mask id="mask0_412_8612" style="mask-type:alpha" maskUnits="userSpaceOnUse" x="0" y="0" width="24" height="24">
<rect width="23.6445" height="24" fill="#D9D9D9"/>
</mask>
<g mask="url(#mask0_412_8612)">
<path d="M5.37375 24.4545C4.47812 24.4545 3.71684 24.1364 3.08991 23.5C2.46297 22.8636 2.1495 22.0909 2.1495 21.1818H0V9.18182C0 8.58182 0.210472 8.06818 0.631416 7.64091C1.05236 7.21364 1.55839 7 2.1495 7H17.196V11.3636H20.4202L23.6445 15.7273V21.1818H21.495C21.495 22.0909 21.1815 22.8636 20.5546 23.5C19.9277 24.1364 19.1664 24.4545 18.2707 24.4545C17.3751 24.4545 16.6138 24.1364 15.9869 23.5C15.36 22.8636 15.0465 22.0909 15.0465 21.1818H8.598C8.598 22.0909 8.28453 22.8636 7.65759 23.5C7.03066 24.1364 6.26937 24.4545 5.37375 24.4545ZM5.37375 22.2727C5.67826 22.2727 5.93352 22.1682 6.13951 21.9591C6.3455 21.75 6.4485 21.4909 6.4485 21.1818C6.4485 20.8727 6.3455 20.6136 6.13951 20.4045C5.93352 20.1955 5.67826 20.0909 5.37375 20.0909C5.06924 20.0909 4.81398 20.1955 4.60799 20.4045C4.402 20.6136 4.299 20.8727 4.299 21.1818C4.299 21.4909 4.402 21.75 4.60799 21.9591C4.81398 22.1682 5.06924 22.2727 5.37375 22.2727ZM18.2707 22.2727C18.5753 22.2727 18.8305 22.1682 19.0365 21.9591C19.2425 21.75 19.3455 21.4909 19.3455 21.1818C19.3455 20.8727 19.2425 20.6136 19.0365 20.4045C18.8305 20.1955 18.5753 20.0909 18.2707 20.0909C17.9662 20.0909 17.711 20.1955 17.505 20.4045C17.299 20.6136 17.196 20.8727 17.196 21.1818C17.196 21.4909 17.299 21.75 17.505 21.9591C17.711 22.1682 17.9662 22.2727 18.2707 22.2727ZM17.196 16.8182H21.7637L19.3455 13.5455H17.196V16.8182Z" fill="#0E0E0E" fill-opacity="0.7"/>
</g>
</svg>
