<svg width="24" height="25" viewBox="0 0 24 25" fill="none" xmlns="http://www.w3.org/2000/svg">
<mask id="mask0_412_8600" style="mask-type:alpha" maskUnits="userSpaceOnUse" x="0" y="0" width="24" height="25">
<rect y="0.447021" width="23.5915" height="24" fill="#D9D9D9"/>
</mask>
<g mask="url(#mask0_412_8600)">
<path d="M11.7957 24.447L8.29878 20.9426H3.44477V16.0045L0 12.447L3.44477 8.8895V3.95145H8.29878L11.7957 0.447021L15.2927 3.95145H20.1467V8.8895L23.5915 12.447L20.1467 16.0045V20.9426H15.2927L11.7957 24.447Z" fill="#0E0E0E" fill-opacity="0.7"/>
</g>
<mask id="mask1_412_8600" style="mask-type:alpha" maskUnits="userSpaceOnUse" x="4" y="5" width="14" height="15">
<rect x="4.91406" y="5.44702" width="12.7787" height="14.1818" fill="#D9D9D9"/>
</mask>
<g mask="url(#mask1_412_8600)">
<path d="M8.90653 11.9469C8.39183 11.9469 7.95257 11.745 7.58873 11.3412C7.22489 10.9374 7.04297 10.4499 7.04297 9.87873C7.04297 9.30752 7.22489 8.82002 7.58873 8.41623C7.95257 8.01244 8.39183 7.81055 8.90653 7.81055C9.42123 7.81055 9.8605 8.01244 10.2243 8.41623C10.5882 8.82002 10.7701 9.30752 10.7701 9.87873C10.7701 10.4499 10.5882 10.9374 10.2243 11.3412C9.8605 11.745 9.42123 11.9469 8.90653 11.9469ZM8.90653 10.7651C9.12839 10.7651 9.31696 10.6789 9.47226 10.5066C9.62755 10.3342 9.7052 10.1249 9.7052 9.87873C9.7052 9.63252 9.62755 9.42324 9.47226 9.25089C9.31696 9.07854 9.12839 8.99237 8.90653 8.99237C8.68468 8.99237 8.4961 9.07854 8.34081 9.25089C8.18551 9.42324 8.10786 9.63252 8.10786 9.87873C8.10786 10.1249 8.18551 10.3342 8.34081 10.5066C8.4961 10.6789 8.68468 10.7651 8.90653 10.7651ZM13.6986 17.2651C13.1839 17.2651 12.7446 17.0632 12.3807 16.6594C12.0169 16.2556 11.835 15.7681 11.835 15.1969C11.835 14.6257 12.0169 14.1382 12.3807 13.7344C12.7446 13.3306 13.1839 13.1287 13.6986 13.1287C14.2133 13.1287 14.6525 13.3306 15.0164 13.7344C15.3802 14.1382 15.5621 14.6257 15.5621 15.1969C15.5621 15.7681 15.3802 16.2556 15.0164 16.6594C14.6525 17.0632 14.2133 17.2651 13.6986 17.2651ZM13.6986 16.0833C13.9204 16.0833 14.109 15.9971 14.2643 15.8248C14.4196 15.6524 14.4972 15.4431 14.4972 15.1969C14.4972 14.9507 14.4196 14.7414 14.2643 14.5691C14.109 14.3967 13.9204 14.3105 13.6986 14.3105C13.4767 14.3105 13.2881 14.3967 13.1328 14.5691C12.9775 14.7414 12.8999 14.9507 12.8999 15.1969C12.8999 15.4431 12.9775 15.6524 13.1328 15.8248C13.2881 15.9971 13.4767 16.0833 13.6986 16.0833ZM7.78839 17.2651L7.04297 16.4378L14.8167 7.81055L15.5621 8.63782L7.78839 17.2651Z" fill="white"/>
</g>
</svg>
