<svg width="24" height="25" viewBox="0 0 24 25" fill="none" xmlns="http://www.w3.org/2000/svg">
<mask id="mask0_412_8376" style="mask-type:alpha" maskUnits="userSpaceOnUse" x="0" y="0" width="24" height="25">
<rect y="0.447021" width="23.6445" height="24" fill="#D9D9D9"/>
</mask>
<g mask="url(#mask0_412_8376)">
<path d="M10.5087 13.7804V0.447021H13.1358V13.7804H10.5087ZM11.8222 24.447C10.2022 24.447 8.67512 24.1304 7.24113 23.497C5.80713 22.8637 4.55376 22.0026 3.481 20.9137C2.40824 19.8248 1.55988 18.5526 0.935928 17.097C0.311976 15.6415 0 14.0915 0 12.447C0 10.6692 0.361235 8.99147 1.08371 7.41369C1.80618 5.83591 2.8242 4.46924 4.13779 3.31369L6.04248 5.24702C4.94783 6.09147 4.10495 7.14702 3.51384 8.41369C2.92272 9.68036 2.62717 11.0248 2.62717 12.447C2.62717 15.0248 3.52478 17.2248 5.32001 19.047C7.11524 20.8692 9.28265 21.7804 11.8222 21.7804C14.3837 21.7804 16.5566 20.8692 18.3409 19.047C20.1252 17.2248 21.0173 15.0248 21.0173 12.447C21.0173 11.0248 20.7272 9.68036 20.1471 8.41369C19.5669 7.14702 18.7186 6.09147 17.602 5.24702L19.5067 3.31369C20.8203 4.46924 21.8383 5.83591 22.5608 7.41369C23.2833 8.99147 23.6445 10.6692 23.6445 12.447C23.6445 14.0915 23.3325 15.6415 22.7086 17.097C22.0846 18.5526 21.2417 19.8248 20.1799 20.9137C19.1181 22.0026 17.8702 22.8637 16.4362 23.497C15.0022 24.1304 13.4642 24.447 11.8222 24.447Z" fill="#0E0E0E" fill-opacity="0.7"/>
</g>
</svg>
