<svg width="24" height="24" viewBox="0 0 24 24" fill="none" xmlns="http://www.w3.org/2000/svg">
<mask id="mask0_60_756" style="mask-type:alpha" maskUnits="userSpaceOnUse" x="0" y="0" width="24" height="24">
<rect width="24" height="24" fill="#D9D9D9"/>
</mask>
<g mask="url(#mask0_60_756)">
<path d="M21.2887 23.0001L13.5887 15.3001C12.9776 15.7889 12.2748 16.176 11.4804 16.4612C10.6859 16.7464 9.84056 16.8889 8.94426 16.8889C6.72389 16.8889 4.84472 16.12 3.30676 14.582C1.7688 13.044 0.999817 11.1649 0.999817 8.9445C0.999817 6.72413 1.7688 4.84497 3.30676 3.307C4.84472 1.76904 6.72389 1.00006 8.94426 1.00006C11.1646 1.00006 13.0438 1.76904 14.5818 3.307C16.1197 4.84497 16.8887 6.72413 16.8887 8.9445C16.8887 9.8408 16.7461 10.6862 16.4609 11.4806C16.1757 12.2751 15.7887 12.9778 15.2998 13.5889L22.9998 21.2889L21.2887 23.0001ZM8.94426 14.4445C10.472 14.4445 11.7707 13.9098 12.8401 12.8403C13.9095 11.7709 14.4443 10.4723 14.4443 8.9445C14.4443 7.41673 13.9095 6.11811 12.8401 5.04867C11.7707 3.97922 10.472 3.4445 8.94426 3.4445C7.41648 3.4445 6.11787 3.97922 5.04843 5.04867C3.97898 6.11811 3.44426 7.41673 3.44426 8.9445C3.44426 10.4723 3.97898 11.7709 5.04843 12.8403C6.11787 13.9098 7.41648 14.4445 8.94426 14.4445Z" fill="white"/>
</g>
</svg>
