<svg width="19" height="25" viewBox="0 0 19 25" fill="none" xmlns="http://www.w3.org/2000/svg">
<path d="M2.30304 24.447C1.6697 24.447 1.12753 24.212 0.676517 23.742C0.225506 23.272 0 22.707 0 22.047V7.64702C0 6.98702 0.225506 6.42202 0.676517 5.95202C1.12753 5.48202 1.6697 5.24702 2.30304 5.24702H4.60607C4.60607 3.92702 5.05708 2.79702 5.95911 1.85702C6.86113 0.917022 7.94547 0.447021 9.21214 0.447021C10.4788 0.447021 11.5632 0.917022 12.4652 1.85702C13.3672 2.79702 13.8182 3.92702 13.8182 5.24702H16.1213C16.7546 5.24702 17.2968 5.48202 17.7478 5.95202C18.1988 6.42202 18.4243 6.98702 18.4243 7.64702V22.047C18.4243 22.707 18.1988 23.272 17.7478 23.742C17.2968 24.212 16.7546 24.447 16.1213 24.447H2.30304ZM5.75759 11.247C6.08385 11.247 6.35734 11.132 6.57805 10.902C6.79875 10.672 6.90911 10.387 6.90911 10.047V7.64702H4.60607V10.047C4.60607 10.387 4.71642 10.672 4.93713 10.902C5.15784 11.132 5.43133 11.247 5.75759 11.247ZM6.90911 5.24702H11.5152C11.5152 4.58702 11.2897 4.02202 10.8387 3.55202C10.3877 3.08202 9.84548 2.84702 9.21214 2.84702C8.57881 2.84702 8.03664 3.08202 7.58562 3.55202C7.13461 4.02202 6.90911 4.58702 6.90911 5.24702ZM12.6667 11.247C12.993 11.247 13.2664 11.132 13.4872 10.902C13.7079 10.672 13.8182 10.387 13.8182 10.047V7.64702H11.5152V10.047C11.5152 10.387 11.6255 10.672 11.8462 10.902C12.0669 11.132 12.3404 11.247 12.6667 11.247Z" fill="#0E0E0E" fill-opacity="0.7"/>
</svg>
