<svg width="25" height="25" viewBox="0 0 25 25" fill="none" xmlns="http://www.w3.org/2000/svg">
<mask id="mask0_412_8636" style="mask-type:alpha" maskUnits="userSpaceOnUse" x="0" y="0" width="25" height="25">
<rect y="0.447021" width="24.64" height="24" fill="#D9D9D9"/>
</mask>
<g mask="url(#mask0_412_8636)">
<path d="M12.32 24.447C10.6157 24.447 9.01413 24.132 7.5152 23.502C6.01627 22.872 4.7124 22.017 3.6036 20.937C2.4948 19.857 1.617 18.587 0.9702 17.127C0.3234 15.667 0 14.107 0 12.447C0 10.787 0.3234 9.22702 0.9702 7.76702C1.617 6.30702 2.4948 5.03702 3.6036 3.95702C4.7124 2.87702 6.01627 2.02202 7.5152 1.39202C9.01413 0.762021 10.6157 0.447021 12.32 0.447021C14.0243 0.447021 15.6259 0.762021 17.1248 1.39202C18.6237 2.02202 19.9276 2.87702 21.0364 3.95702C22.1452 5.03702 23.023 6.30702 23.6698 7.76702C24.3166 9.22702 24.64 10.787 24.64 12.447C24.64 14.107 24.3166 15.667 23.6698 17.127C23.023 18.587 22.1452 19.857 21.0364 20.937C19.9276 22.017 18.6237 22.872 17.1248 23.502C15.6259 24.132 14.0243 24.447 12.32 24.447ZM8.7472 21.387L10.2256 18.087C9.3632 17.787 8.61887 17.322 7.9926 16.692C7.36633 16.062 6.87867 15.327 6.5296 14.487L3.1416 15.867C3.61387 17.147 4.3428 18.267 5.3284 19.227C6.314 20.187 7.4536 20.907 8.7472 21.387ZM6.5296 10.407C6.87867 9.56702 7.36633 8.83202 7.9926 8.20202C8.61887 7.57202 9.3632 7.10702 10.2256 6.80702L8.8088 3.50702C7.49467 3.98702 6.3448 4.70702 5.3592 5.66702C4.3736 6.62702 3.6344 7.74702 3.1416 9.02702L6.5296 10.407ZM12.32 16.047C13.3467 16.047 14.2193 15.697 14.938 14.997C15.6567 14.297 16.016 13.447 16.016 12.447C16.016 11.447 15.6567 10.597 14.938 9.89702C14.2193 9.19702 13.3467 8.84702 12.32 8.84702C11.2933 8.84702 10.4207 9.19702 9.702 9.89702C8.98333 10.597 8.624 11.447 8.624 12.447C8.624 13.447 8.98333 14.297 9.702 14.997C10.4207 15.697 11.2933 16.047 12.32 16.047ZM15.8928 21.387C17.1864 20.907 18.3209 20.192 19.2962 19.242C20.2715 18.292 21.0056 17.187 21.4984 15.927L18.1104 14.487C17.8024 15.327 17.3301 16.052 16.6936 16.662C16.0571 17.272 15.3179 17.747 14.476 18.087L15.8928 21.387ZM18.1104 10.347L21.4984 8.96702C21.0056 7.70702 20.2715 6.60202 19.2962 5.65202C18.3209 4.70202 17.1864 3.98702 15.8928 3.50702L14.476 6.86702C15.3179 7.16702 16.0468 7.62202 16.6628 8.23202C17.2788 8.84202 17.7613 9.54702 18.1104 10.347Z" fill="#0E0E0E" fill-opacity="0.7"/>
</g>
</svg>
