<svg width="24" height="25" viewBox="0 0 24 25" fill="none" xmlns="http://www.w3.org/2000/svg">
<mask id="mask0_412_8628" style="mask-type:alpha" maskUnits="userSpaceOnUse" x="0" y="0" width="24" height="25">
<rect y="0.447021" width="23.6445" height="24" fill="#D9D9D9"/>
</mask>
<g mask="url(#mask0_412_8628)">
<path d="M17.7357 21.447H7.88378V8.44702L14.7801 1.44702L16.0116 2.69702C16.1265 2.81369 16.2209 2.97202 16.2948 3.17202C16.3687 3.37202 16.4057 3.56369 16.4057 3.74702V4.09702L15.3219 8.44702H20.6912C21.2166 8.44702 21.6764 8.64702 22.0705 9.04702C22.4646 9.44702 22.6616 9.91369 22.6616 10.447V12.447C22.6616 12.5637 22.6493 12.6887 22.6246 12.822C22.6 12.9554 22.5631 13.0804 22.5138 13.197L19.5582 20.247C19.4105 20.5804 19.1642 20.8637 18.8194 21.097C18.4745 21.3304 18.1133 21.447 17.7357 21.447ZM5.91341 8.44702V21.447H1.97266V8.44702H5.91341Z" fill="#0E0E0E" fill-opacity="0.7"/>
</g>
</svg>
